# xmcd
#
# Track frame offsets: 
#        150
#        14664
#        42575
#        59759
#        83897
#        93649
#        118527
#        135720
#        153718
#        172441
#
# Disc length: 2662 seconds
#
# Revision: 0
# Processed by: cddbd v1.5.2PL0 Copyright (c) Steve Scherf et al.
# Submitted via: ExactAudioCopyFreeDBPlugin 1.0
#
DISCID=980a640a
DTITLE=Valley of the Sun - Electric Talons of the Thunderhawk 
DYEAR=2014
DGENRE=Rock
TTITLE0=Worm Teeth
TTITLE1=As Earth and Moon
TTITLE2=Maya
TTITLE3=Nomads
TTITLE4=Laser Vision Intermission
TTITLE5=Within the Glare
TTITLE6=The Message Is Get Down
TTITLE7=The Sleeping Sand
TTITLE8=Gunslinger
TTITLE9=Centaur Rodeo
EXTD=
EXTT0=
EXTT1=
EXTT2=
EXTT3=
EXTT4=
EXTT5=
EXTT6=
EXTT7=
EXTT8=
EXTT9=
PLAYORDER=
